{"title":"In the Devil's Courthouse (2011) WEBRip","uid":8352254,"size":939192509,"categoryP":"video","categoryS":"movies","magnet":"?xt=urn:btih:11a49c376d8936e6f5e612db64841290322e6c09&amp;dn=In+the+Devil%27s+Courthouse+%282011%29+WEBRip&amp;tr=udp%3A%2F%2Ftracker.openbittorrent.com%3A80&amp;tr=udp%3A%2F%2Fopen.demonii.com%3A1337&amp;tr=udp%3A%2F%2Ftracker.coppersurfer.tk%3A6969&amp;tr=udp%3A%2F%2Fexodus.desync.com%3A6969","seeders":1,"leechers":1,"uploader":"RadioResearch","files":3,"time":1365376521,"description":"*******************************************************************************\n                    In the Devil's Courthouse (2011) WEBRip\n*******************************************************************************\n\n-------------------------------------------------------------------------------\n                              General Information\n-------------------------------------------------------------------------------\nType.................: Movie\n\n\n\nVideo Format.........: AVI\nVideo Bitrate........: 1472\nResolution...........: 640 x 360\nColor................: 8 bit\nFPS..................: 24.000 (same as original)\nSource...............: WEB 16:9\nOriginal Format......: NTSC\nGenre................: Horror\nIMDb Rating..........: 6.7\nMovie Information....: http://www.imdb.com/title/tt1745912/\n\n-------------------------------------------------------------------------------\n                               Post Information\n-------------------------------------------------------------------------------\nPosted by............: Radioresearch\nPosted on............: 4/7/2013\n\n-------------------------------------------------------------------------------\n                                 Release Notes\n-------------------------------------------------------------------------------\nSEEDBOX SUPPORTED!!\n\nIn The Devil's Courthouse. Pray... you're not judged. Siblings, Leah and Steve, \nare forced to confront their strained relationship with each other as they and a \nsmall group of friends and strangers struggle to survive against a ravenous \ncreature from Cherokee myth in the Appalachian Mountains.\n\nAnother decently done, low-budget indie horror.  The effects were not too \nshabby, although I have to say I think they could have done better with their \nchosen frame rate and encoding.  The source didn't leave much room for \nimprovement, unfortunately.\n\nEnjoy!\n\nRadioResearch\n\nGeneral\nComplete name                            : G:In the Devil's Courthouse (2011) \nWEBRipIn The Devil's Courthouse.avi\nFormat                                   : AVI\nFormat/Info                              : Audio Video Interleave\nFile size                                : 896 MiB\nDuration                                 : 1h 25mn\nOverall bit rate                         : 1 472 Kbps\n\nVideo\nID                                       : 0\nFormat                                   : MPEG-4 Visual\nFormat profile                           : Simple@L3\nFormat settings, BVOP                    : No\nFormat settings, QPel                    : No\nFormat settings, GMC                     : No warppoints\nFormat settings, Matrix                  : Default (H.263)\nCodec ID                                 : XVID\nCodec ID/Hint                            : XviD\nDuration                                 : 1h 25mn\nBit rate                                 : 1 331 Kbps\nWidth                                    : 640 pixels\nHeight                                   : 360 pixels\nDisplay aspect ratio                     : 16:9\nFrame rate                               : 24.000 fps\nColor space                              : YUV\nChroma subsampling                       : 4:2:0\nBit depth                                : 8 bits\nScan type                                : Progressive\nCompression mode                         : Lossy\nBits/(Pixel*Frame)                       : 0.241\nStream size                              : 810 MiB (90%)\nWriting library                          : XviD 1.2.1 (UTC 2008-12-04)\n\nAudio\nID                                       : 1\nFormat                                   : MPEG Audio\nFormat version                           : Version 1\nFormat profile                           : Layer 3\nMode                                     : Joint stereo\nMode extension                           : MS Stereo\nCodec ID                                 : 55\nCodec ID/Hint                            : MP3\nDuration                                 : 1h 25mn\nBit rate mode                            : Constant\nBit rate                                 : 128 Kbps\nChannel(s)                               : 2 channels\nSampling rate                            : 44.1 KHz\nCompression mode                         : Lossy\nStream size                              : 77.9 MiB (9%)\nAlignment                                : Aligned on interleaves\nInterleave, duration                     : 26 ms (0.63 video frame)\nWriting library                          : LAME3.98.2\n\n\n\n\n-------------------------------------------------------------------------------\nGenerated with Cool NFO Creator - http://fly.to/coolbeans\n-------------------------------------------------------------------------------\n","torrent":{"xt":"urn:btih:11a49c376d8936e6f5e612db64841290322e6c09","amp;dn":"In+the+Devil%27s+Courthouse+%282011%29+WEBRip","amp;tr":["udp%3A%2F%2Ftracker.openbittorrent.com%3A80","udp%3A%2F%2Fopen.demonii.com%3A1337","udp%3A%2F%2Ftracker.coppersurfer.tk%3A6969","udp%3A%2F%2Fexodus.desync.com%3A6969"],"infoHash":"11a49c376d8936e6f5e612db64841290322e6c09","infoHashBuffer":{"type":"Buffer","data":[17,164,156,55,109,137,54,230,245,230,18,219,100,132,18,144,50,46,108,9]},"announce":[],"urlList":[]}}